<?xml version="1.0" standalone="no"?>
<!DOCTYPE svg PUBLIC "-//W3C//DTD SVG 20010904//EN"
 "http://www.w3.org/TR/2001/REC-SVG-20010904/DTD/svg10.dtd">
<svg version="1.0" xmlns="http://www.w3.org/2000/svg"
 width="512.000000pt" height="512.000000pt" viewBox="0 0 512.000000 512.000000"
 preserveAspectRatio="xMidYMid meet">
<metadata>
Created by potrace 1.14, written by Peter Selinger 2001-2017
</metadata>
<g transform="translate(0.000000,512.000000) scale(0.100000,-0.100000)"
fill="#000000" stroke="none">
<path d="M505 4456 c-81 -30 -134 -65 -183 -121 -50 -57 -87 -131 -100 -201
-5 -31 -8 -680 -8 -1600 l2 -1549 21 -58 c43 -115 138 -214 250 -258 l58 -24
2110 -2 c2088 -2 2111 -1 2169 18 141 48 243 158 282 304 11 41 13 332 11
1620 -2 1523 -3 1571 -21 1615 -48 111 -120 188 -226 239 l-75 36 -2115 2
-2115 2 -60 -23z m761 -405 c7 -1 10 -256 9 -843 0 -464 1 -848 2 -853 2 -6
45 -10 108 -9 l105 2 0 -639 c0 -504 -3 -639 -12 -640 -7 0 -197 -1 -423 -2
l-410 0 -3 1488 c-1 884 2 1491 7 1494 7 5 566 6 617 2z m1060 0 l21 -1 -1
-846 c-1 -465 1 -849 4 -853 3 -3 50 -6 105 -6 l100 0 3 -640 2 -640 -412 2
c-227 1 -420 2 -428 2 -14 1 -16 70 -15 639 l0 637 105 0 105 1 2 849 c0 468
2 852 2 855 1 4 316 5 407 1z m1079 0 c8 -1 11 -269 10 -851 0 -843 0 -850 20
-851 11 0 59 -1 108 -1 l87 -1 0 -639 0 -638 -32 -1 c-42 -1 -800 -1 -814 0
-7 1 -10 190 -9 633 1 348 3 636 3 639 1 4 35 7 75 7 39 0 86 0 103 1 l31 1 0
843 c0 464 2 848 5 853 5 7 339 11 413 5z m1286 -16 c0 -11 1 -683 2 -1493 2
-1466 2 -1472 -18 -1473 -89 -4 -825 -3 -826 1 -1 3 -3 291 -4 641 l-1 636
103 -1 c61 -1 104 3 106 9 2 5 3 383 3 838 -1 456 2 836 5 845 6 15 35 17 318
17 304 0 311 0 312 -20z"/>
</g>
</svg>
